<svg xmlns="http://www.w3.org/2000/svg" width="175" height="153" fill="#8d0f5c"><g clip-path="url(#a)"><path fill="#c7ffe3" d="M3.703 80.268 19.355 153H175l-10.943-72.732-125.069-1.424-35.286 1.424Z"/><path fill="#8d0f5c" d="M88.668 88.892c0-1.574-.418-2.785-1.246-3.627-.828-.842-2.026-1.266-3.572-1.266h-1.684v9.835h1.704c1.643 0 2.86-.403 3.634-1.204.773-.801 1.163-2.047 1.163-3.737ZM112.251 106.161c.486-.328.725-.869.725-1.615 0-.698-.226-1.211-.67-1.533-.445-.322-1.157-.486-2.122-.486h-1.17v4.127h.835c1.115 0 1.909-.164 2.402-.499M70.373 112.028c1.28 0 2.355-.459 3.224-1.376.869-.917 1.3-2.074 1.3-3.457 0-1.266-.438-2.341-1.314-3.23-.876-.89-1.93-1.335-3.162-1.335s-2.381.438-3.271 1.328c-.897.883-1.341 1.964-1.341 3.244 0 1.28.451 2.464 1.362 3.416.903.951 1.977 1.423 3.21 1.423M74.55 121.028c-1.287 0-2.382.445-3.279 1.328-.897.883-1.341 1.965-1.341 3.245s.451 2.464 1.362 3.408c.903.952 1.977 1.424 3.21 1.424 1.231 0 2.354-.459 3.223-1.376.869-.917 1.3-2.074 1.3-3.456 0-1.267-.438-2.341-1.314-3.238-.876-.89-1.93-1.335-3.162-1.335ZM55.803 106.161c.486-.328.726-.869.726-1.615 0-.698-.22-1.211-.664-1.533-.445-.322-1.157-.486-2.122-.486h-1.122v4.127h.787c1.116 0 1.916-.164 2.395-.499M64.234 153h3.272l-3.272-5.503V153ZM115.399 141.624c0-.698-.219-1.211-.671-1.533-.445-.322-1.149-.486-2.121-.486h-1.123v4.127h.787c1.116 0 1.917-.164 2.396-.499.486-.329.725-.87.725-1.616M85.367 141.035c-.876-.889-1.93-1.334-3.162-1.334-1.231 0-2.381.438-3.278 1.328-.896.883-1.341 1.964-1.341 3.244a4.84 4.84 0 0 0 1.362 3.415c.903.945 1.978 1.424 3.21 1.424 1.231 0 2.354-.458 3.223-1.376.869-.924 1.3-2.074 1.3-3.456 0-1.266-.438-2.341-1.314-3.238M68.197 141.624c0-.698-.226-1.211-.67-1.533-.446-.322-1.15-.486-2.122-.486h-1.17v4.127h.834c1.116 0 1.916-.164 2.402-.499.486-.329.726-.87.726-1.616M21.996 128.311h3.45l-1.719-5.579-1.73 5.579Z"/><path fill="#8d0f5c" d="M35.943 134.068a8.586 8.586 0 0 1-2.915-2.074 8.797 8.797 0 0 1-1.848-2.916c-.418-1.075-.623-2.252-.623-3.525a8.645 8.645 0 0 1 2.642-6.297 8.909 8.909 0 0 1 2.888-1.917 9.128 9.128 0 0 1 3.449-.65c2.06 0 3.88.629 5.454 1.896 1.575 1.259 2.642 2.943 3.196 5.051h-4.592c-.465-.855-1.047-1.506-1.731-1.951a4.181 4.181 0 0 0-2.3-.664c-1.293 0-2.388.439-3.278 1.321-.89.883-1.334 1.958-1.334 3.231 0 1.342.451 2.492 1.348 3.45.897.958 1.964 1.43 3.196 1.43.821 0 1.574-.219 2.272-.643.698-.431 1.273-1.047 1.738-1.848h4.62c-.575 2.108-1.629 3.771-3.176 4.983-1.546 1.211-3.36 1.821-5.454 1.821-1.273 0-2.457-.233-3.538-.698m-5.092-48.714a8.46 8.46 0 0 1 1.964-2.861 8.984 8.984 0 0 1 2.888-1.917 9.125 9.125 0 0 1 3.45-.65c2.06 0 3.88.63 5.454 1.889 1.574 1.26 2.642 2.943 3.196 5.051h-4.592c-.466-.862-1.047-1.505-1.732-1.95a4.125 4.125 0 0 0-2.3-.664c-1.3 0-2.388.438-3.277 1.32-.89.877-1.335 1.958-1.335 3.231 0 1.342.452 2.492 1.348 3.45.897.958 1.965 1.43 3.196 1.43a4.23 4.23 0 0 0 2.273-.643c.697-.431 1.272-1.047 1.738-1.848h4.62c-.576 2.108-1.63 3.772-3.176 4.983-1.54 1.212-3.36 1.82-5.455 1.82-1.273 0-2.45-.232-3.538-.697-1.088-.466-2.06-1.157-2.915-2.074a8.78 8.78 0 0 1-1.848-2.916c-.41-1.082-.623-2.252-.623-3.525 0-1.273.226-2.348.678-3.422m17.307 31.691h10.772v4.031h-3.291v13.34h-4.25v-13.34h-3.23v-4.031Zm.158-18.406h5.762c1.17 0 2.074.075 2.717.22a4.72 4.72 0 0 1 1.69.731 5.16 5.16 0 0 1 1.746 2.04c.397.822.588 1.766.588 2.841 0 1.074-.24 2.122-.718 3.018a5.397 5.397 0 0 1-2.033 2.136 5.133 5.133 0 0 1-1.656.602c-.637.123-1.52.185-2.628.185h-1.218v5.592h-4.25V98.639v.007Zm0-18.371h4.25v6.598h4.352v-6.598h4.27v17.379h-4.27v-6.647h-4.352v6.647h-4.25v-17.38Zm13.783 23.464a8.697 8.697 0 0 1 1.971-2.875 8.658 8.658 0 0 1 2.868-1.896 9.213 9.213 0 0 1 3.456-.644c1.163 0 2.272.22 3.34.664a8.944 8.944 0 0 1 2.86 1.903 9.077 9.077 0 0 1 1.998 2.923 8.649 8.649 0 0 1 .685 3.415 9.72 9.72 0 0 1-.637 3.498 8.526 8.526 0 0 1-1.882 2.902 8.722 8.722 0 0 1-2.908 2.019 8.89 8.89 0 0 1-3.484.705c-1.28 0-2.464-.232-3.559-.691a8.548 8.548 0 0 1-2.922-2.053 8.726 8.726 0 0 1-1.848-2.916c-.41-1.082-.622-2.252-.622-3.525 0-1.205.226-2.341.677-3.416m.35-23.463h4.25v17.378h-4.25V80.29Zm5.502 0h4.222V93.82h4.962v3.84h-9.191V80.28l.007.008Zm14.337 18.37 3.278 11.637L88.86 98.66h4.4l-5.38 17.372h-4.591L77.915 98.66h4.394Zm-4.38-18.37h5.934c1.615 0 2.908.157 3.873.479.965.321 1.841.855 2.628 1.601a7.54 7.54 0 0 1 1.896 2.875c.43 1.13.643 2.403.643 3.82 0 1.314-.212 2.512-.63 3.593a8.154 8.154 0 0 1-1.888 2.861c-.801.78-1.636 1.335-2.492 1.663-.862.329-2.005.486-3.435.486h-6.529V80.29Zm16.192 18.37h9.438v3.834h-5.188v2.813h5.188v3.867h-5.188v3.019h5.188v3.84h-9.438V98.66Zm10.663 0h5.762c1.17 0 2.074.076 2.71.22.644.144 1.205.39 1.691.732a5.193 5.193 0 0 1 1.745 2.033c.39.815.588 1.759.588 2.82 0 1.41-.349 2.608-1.04 3.6-.691.993-1.656 1.657-2.888 1.999l4.25 5.969h-5.249l-3.333-5.592v5.592h-4.25V98.66h.014Zm12.763 0h15.207l2.518 6.373 2.649-6.372h4.441l-5.057 10.944v6.435h-4.271v-6.435l-4.701-10.424v3.511h-3.292v13.341h-4.25v-13.341h-3.237V98.66h-.007Zm-18.84 35.785H94.97l-6.481-9.678v9.678h-4.25v-17.379h3.832l6.386 9.658v-9.658h4.25v17.379Zm-15.919-5.298a8.61 8.61 0 0 1-1.875 2.902 8.784 8.784 0 0 1-6.392 2.725c-1.28 0-2.464-.233-3.559-.692-1.088-.458-2.06-1.143-2.922-2.053a8.774 8.774 0 0 1-1.848-2.916c-.41-1.075-.616-2.252-.616-3.525 0-1.198.226-2.341.678-3.416a8.692 8.692 0 0 1 1.97-2.874 8.762 8.762 0 0 1 2.868-1.896c1.061-.432 2.218-.651 3.456-.651 1.164 0 2.272.219 3.34.664a8.832 8.832 0 0 1 2.86 1.903 9.077 9.077 0 0 1 2 2.923 8.67 8.67 0 0 1 .683 3.415c0 1.191-.212 2.41-.636 3.498m-18.341 5.298h-4.25v-17.379h4.25v17.379Zm-17.93 18.323c-1.089-.465-2.06-1.157-2.916-2.067a8.776 8.776 0 0 1-1.848-2.916c-.41-1.081-.623-2.252-.623-3.525 0-1.198.226-2.341.678-3.415a8.867 8.867 0 0 1 1.957-2.875c.863-.842 1.82-1.485 2.888-1.917a9.128 9.128 0 0 1 3.45-.65c1.868 0 3.551.541 5.057 1.615 1.506 1.082 2.6 2.54 3.292 4.374h-4.832c-.554-.582-1.122-1.006-1.697-1.28a4.383 4.383 0 0 0-1.868-.404c-1.267 0-2.34.445-3.224 1.335-.883.89-1.328 1.971-1.328 3.231 0 1.348.452 2.498 1.349 3.45.896.951 1.964 1.43 3.196 1.43a4.28 4.28 0 0 0 2.251-.616 4.655 4.655 0 0 0 1.65-1.725H49v-3.47h9.889c.02.328.034.568.041.719v.431c0 .979-.123 1.889-.37 2.731a8.269 8.269 0 0 1-1.122 2.354 8.746 8.746 0 0 1-3.216 2.855c-.48.253-.972.438-1.472.602h7.227v-17.283h5.762c1.17 0 2.074.075 2.717.219.644.151 1.205.39 1.69.733a5.183 5.183 0 0 1 1.746 2.032c.397.815.588 1.76.588 2.82 0 1.41-.349 2.608-1.04 3.601-.69.985-1.656 1.656-2.888 1.998l4.182 5.873h6.624a8.144 8.144 0 0 1-.773-.28c-1.088-.459-2.06-1.143-2.922-2.054a8.777 8.777 0 0 1-1.848-2.916c-.41-1.081-.623-2.252-.623-3.525 0-1.198.226-2.341.678-3.415a8.697 8.697 0 0 1 1.97-2.875 8.76 8.76 0 0 1 2.868-1.896c1.061-.431 2.218-.643 3.456-.643 1.164 0 2.272.219 3.34.664a9.032 9.032 0 0 1 2.868 1.902 9.097 9.097 0 0 1 1.998 2.923 8.643 8.643 0 0 1 .684 3.409 9.743 9.743 0 0 1-.636 3.497 8.588 8.588 0 0 1-1.882 2.903 8.617 8.617 0 0 1-2.909 2.012c-.26.109-.527.205-.794.294h11.457c-.897-.294-1.67-.746-2.286-1.41-1.102-1.184-1.65-2.854-1.65-5.003v-10.87h4.271v10.705c0 1.013.164 1.76.5 2.239.335.479.848.725 1.553.725.74 0 1.287-.246 1.649-.732.363-.486.541-1.232.541-2.225v-10.705h4.257v10.87c0 2.087-.582 3.737-1.745 4.955a5.577 5.577 0 0 1-2.334 1.458h6.125v-17.283h5.763c1.17 0 2.073.075 2.717.219.643.151 1.204.39 1.69.733a5.231 5.231 0 0 1 1.752 2.039c.397.815.588 1.766.588 2.841 0 1.074-.239 2.122-.718 3.018a5.443 5.443 0 0 1-2.033 2.136c-.458.281-1.013.479-1.649.602-.637.123-1.519.185-2.628.185h-1.218v5.503H175L151.978 0 0 63.067l15.344 71.302 6.652-17.331h3.47l6.672 17.379H27.45l-.855-2.519h-5.742l-.883 2.519h-4.613L19.354 153h27.874a6.68 6.68 0 0 1-.711-.26"/></g><defs><clipPath id="a"><path fill="#fff" d="M0 0h175v153H0z"/></clipPath></defs></svg>
