<?xml version="1.0" standalone="no"?>
<!DOCTYPE svg PUBLIC "-//W3C//DTD SVG 20010904//EN"
 "http://www.w3.org/TR/2001/REC-SVG-20010904/DTD/svg10.dtd">
<svg version="1.0" xmlns="http://www.w3.org/2000/svg"
 width="2000.000000pt" height="2000.000000pt" viewBox="0 0 2000.000000 2000.000000"
 preserveAspectRatio="xMidYMid meet" class="footer-logo">

<g transform="translate(0.000000,2000.000000) scale(0.100000,-0.100000)"
fill="#8d0f5c" stroke="none">
<path d="M0 10000 l0 -10000 10000 0 10000 0 0 10000 0 10000 -10000 0 -10000
0 0 -10000z m7140 400 l0 -3190 563 -2 562 -3 3 -397 2 -398 -950 0 -950 0 0
3590 0 3590 385 0 385 0 0 -3190z m3640 2795 l0 -395 -152 0 c-234 0 -368 -29
-553 -120 -219 -107 -377 -276 -445 -475 -55 -159 -69 -474 -30 -670 64 -324
297 -818 684 -1448 330 -537 472 -832 560 -1159 152 -563 86 -1204 -172 -1672
-218 -397 -612 -693 -1059 -795 -156 -36 -214 -42 -445 -48 l-228 -6 0 395 0
395 173 6 c228 7 351 34 512 115 107 53 183 108 266 192 135 136 195 268 225
495 66 512 -99 953 -774 2071 -335 555 -474 888 -539 1285 -21 130 -24 510 -5
644 58 411 182 715 398 982 236 290 596 501 979 572 143 27 153 27 398 29
l207 2 0 -395z m2870 0 l0 -395 -585 0 -585 0 0 -1145 0 -1145 548 -2 547 -3
0 -420 0 -420 -547 -3 -548 -2 0 -1225 0 -1225 585 0 585 0 0 -400 0 -400
-970 0 -970 0 0 3590 0 3590 970 0 970 0 0 -395z"/>
</g>
</svg>
