<?xml version="1.0" standalone="no"?>
<!DOCTYPE svg PUBLIC "-//W3C//DTD SVG 20010904//EN"
 "http://www.w3.org/TR/2001/REC-SVG-20010904/DTD/svg10.dtd">
<svg version="1.0" xmlns="http://www.w3.org/2000/svg"
 width="1333.000000pt" height="2288.000000pt" viewBox="0 0 1333.000000 2288.000000"
 preserveAspectRatio="xMidYMid meet">

<g transform="translate(0.000000,2288.000000) scale(0.100000,-0.100000)"
fill="#8d0f5c" stroke="none">
<path d="M10 11445 l0 -11435 6655 0 6655 0 0 11435 0 11435 -6655 0 -6655 0
0 -11435z m8978 8711 c122 -63 176 -219 118 -341 -19 -41 -286 -312 -1407
-1431 -1329 -1327 -1386 -1383 -1442 -1403 -77 -28 -158 -27 -220 2 -69 32
-2535 2437 -2566 2502 -43 92 -18 228 55 297 75 70 196 88 289 44 39 -19 288
-256 1171 -1117 617 -602 1132 -1104 1146 -1116 l24 -22 303 303 303 303 -775
756 c-622 608 -778 765 -792 799 -25 62 -23 156 5 212 27 56 96 119 148 134
63 19 141 15 195 -11 35 -17 214 -185 734 -692 377 -368 724 -706 770 -749
l85 -79 796 796 c605 604 808 801 842 817 55 25 166 23 218 -4z m767 -720 c56
-26 107 -78 131 -134 23 -54 22 -147 -3 -202 -16 -34 -210 -234 -822 -845
-441 -440 -801 -803 -801 -806 0 -4 340 -339 757 -745 598 -584 760 -748 776
-783 24 -54 26 -151 4 -202 -55 -132 -221 -197 -349 -136 -36 16 -224 194
-760 717 -391 382 -733 714 -758 737 l-46 42 -303 -303 -303 -303 1145 -1116
c1250 -1219 1187 -1152 1187 -1269 0 -103 -73 -205 -174 -243 -56 -22 -145
-16 -200 12 -20 10 -600 568 -1288 1238 -1003 978 -1255 1229 -1271 1265 -28
63 -28 151 1 215 19 42 253 281 1415 1443 1086 1087 1403 1398 1441 1417 67
33 151 34 221 1z m-6767 -477 c22 -13 599 -568 1281 -1234 987 -962 1246
-1220 1266 -1259 38 -77 31 -189 -19 -282 -8 -16 -639 -653 -1403 -1415 -1153
-1152 -1395 -1389 -1428 -1400 -56 -18 -133 -16 -187 4 -53 20 -119 87 -143
143 -22 52 -19 149 6 204 15 35 197 222 800 825 l780 781 -748 729 c-411 401
-760 746 -775 767 -91 132 -28 324 126 383 62 24 160 16 215 -16 22 -13 377
-354 790 -756 412 -403 754 -733 758 -733 5 0 151 143 326 318 l318 318 -1133
1103 c-623 607 -1147 1123 -1165 1147 -97 135 -35 331 123 390 58 21 163 13
212 -17z m3184 -3112 c67 -32 2539 -2443 2571 -2507 29 -60 31 -167 3 -224
-45 -89 -132 -145 -227 -146 -124 0 -40 -74 -1292 1147 -628 613 -1148 1117
-1155 1120 -16 7 -644 -615 -640 -633 2 -6 348 -347 770 -758 605 -590 771
-758 789 -794 28 -61 29 -151 2 -213 -24 -54 -96 -122 -149 -140 -57 -19 -141
-16 -194 8 -34 15 -237 208 -810 768 -421 410 -771 749 -779 752 -8 4 -294
-275 -785 -765 -831 -832 -798 -802 -904 -802 -67 0 -118 19 -168 63 -83 73
-112 175 -79 278 16 52 75 112 1399 1437 1077 1078 1392 1388 1430 1407 66 33
152 34 218 2z m-2502 -4399 l0 -301 30 41 c59 83 188 133 340 134 115 0 173
-13 263 -60 120 -62 206 -176 259 -342 20 -64 23 -95 23 -215 -1 -155 -15
-224 -66 -332 -98 -207 -331 -317 -569 -269 -103 21 -171 55 -232 114 l-48 46
0 -72 0 -72 -100 0 -100 0 0 815 0 815 100 0 100 0 0 -302z m2820 -513 l0
-815 -100 0 -100 0 0 68 0 69 -52 -52 c-123 -122 -370 -149 -556 -60 -196 93
-303 294 -303 570 0 260 98 453 280 549 85 44 143 57 256 57 143 0 262 -46
338 -130 l37 -41 0 293 c0 162 3 297 7 300 3 4 48 7 100 7 l93 0 0 -815z
m-3545 374 c78 -14 158 -54 197 -98 63 -72 63 -68 68 -507 6 -454 3 -437 79
-432 l46 2 3 -68 c2 -40 -2 -73 -8 -81 -17 -20 -116 -38 -168 -30 -61 9 -118
64 -128 123 l-6 40 -55 -44 c-90 -74 -174 -107 -304 -119 -127 -13 -285 29
-352 93 -73 69 -106 181 -87 297 13 82 36 128 87 176 80 77 186 111 482 154
166 24 221 62 221 153 0 62 -38 122 -95 152 -45 22 -61 25 -165 25 -98 0 -122
-3 -165 -23 -27 -12 -58 -30 -69 -40 -25 -23 -56 -90 -56 -124 l0 -28 -101 0
-102 0 7 53 c15 110 99 232 192 279 117 60 302 78 479 47z m2433 -86 l-3 -108
-70 -7 c-151 -14 -236 -69 -295 -193 -43 -88 -50 -158 -50 -492 l0 -303 -100
0 -100 0 0 590 0 591 93 -3 92 -3 5 -119 c5 -118 5 -119 21 -85 22 46 81 116
133 156 49 38 110 62 186 73 100 14 91 24 88 -97z m2071 86 c94 -21 183 -86
223 -163 42 -83 48 -147 48 -598 l0 -428 -100 0 -100 0 0 433 c0 485 0 483
-74 544 -118 96 -348 57 -440 -75 -15 -22 -36 -68 -47 -102 -17 -56 -19 -95
-19 -431 l0 -369 -100 0 -100 0 0 590 0 591 93 -3 92 -3 3 -83 3 -82 55 60
c111 119 274 161 463 119z m-4059 -1704 l0 -95 -425 0 -425 0 0 -255 0 -255
373 -2 372 -3 0 -90 0 -90 -372 -3 -373 -2 0 -370 0 -370 -110 0 -110 0 0 815
0 815 535 0 535 0 0 -95z m368 -27 l3 -118 -101 0 -100 0 0 120 0 121 98 -3
97 -3 3 -117z m5250 0 l3 -118 -101 0 -100 0 0 120 0 121 98 -3 97 -3 3 -117z
m1632 -693 l0 -815 -95 0 -95 0 0 815 0 815 95 0 95 0 0 -815z m-5904 369 c71
-19 143 -70 181 -127 65 -97 72 -164 73 -659 l0 -398 -100 0 -99 0 -3 438 -3
439 -30 49 c-20 31 -47 58 -75 74 -39 22 -57 25 -140 25 -75 -1 -105 -5 -141
-22 -103 -47 -169 -138 -189 -263 -5 -36 -10 -217 -10 -402 l0 -338 -95 0 -95
0 0 590 0 590 90 0 90 0 0 -92 1 -93 21 30 c42 58 102 108 165 137 96 45 244
54 359 22z m1149 5 c110 -20 198 -78 237 -157 23 -46 23 -53 28 -448 6 -454 3
-437 79 -432 l46 2 0 -74 c0 -73 -1 -75 -30 -89 -17 -9 -60 -15 -100 -15 -56
-1 -77 4 -106 22 -37 22 -69 80 -69 122 0 17 -9 13 -57 -27 -77 -62 -146 -92
-256 -111 -161 -27 -328 12 -410 96 -59 61 -81 122 -81 227 0 105 22 166 82
228 78 81 189 118 491 162 159 23 221 63 221 142 0 90 -60 163 -149 182 -117
25 -263 4 -329 -46 -38 -28 -71 -93 -72 -135 l0 -28 -100 0 -100 0 0 28 c0 50
30 135 66 189 100 147 335 210 609 162z m1258 -10 c58 -17 78 -29 127 -77 41
-40 64 -74 81 -117 24 -60 24 -63 27 -522 l3 -463 -100 0 -101 0 0 430 c0 474
0 473 -62 537 -105 109 -356 71 -450 -67 -64 -94 -68 -127 -68 -537 l0 -363
-100 0 -100 0 0 590 0 590 95 0 95 0 0 -92 0 -91 29 40 c108 150 309 204 524
142z m1122 10 c85 -15 180 -63 237 -121 54 -53 103 -146 117 -221 l8 -47 -103
0 -103 0 -11 38 c-12 48 -58 112 -100 142 -123 88 -353 55 -443 -64 -110 -144
-130 -422 -43 -595 37 -73 71 -107 138 -140 54 -27 71 -31 148 -31 48 0 102 5
121 12 93 31 164 114 189 220 l12 48 99 0 c115 0 112 4 78 -106 -29 -94 -69
-161 -132 -221 -86 -82 -175 -117 -320 -128 -168 -13 -332 40 -431 139 -64 64
-97 119 -133 222 -25 73 -27 91 -27 234 0 119 4 170 18 219 88 318 331 460
681 400z m1648 0 c114 -20 186 -65 235 -148 l27 -46 5 -406 c6 -460 3 -442 79
-437 l46 2 3 -76 3 -76 -31 -11 c-54 -18 -124 -23 -167 -12 -52 14 -101 68
-109 121 l-6 40 -47 -41 c-218 -193 -637 -159 -728 59 -25 60 -34 141 -22 210
12 76 27 109 76 163 70 77 187 117 464 159 148 23 212 47 234 91 39 74 1 177
-80 219 -45 22 -61 25 -165 25 -98 0 -122 -3 -165 -23 -27 -12 -58 -30 -69
-40 -25 -23 -56 -90 -56 -124 l0 -28 -101 0 -102 0 7 53 c15 110 99 232 192
279 115 59 305 77 477 47z m-6155 -601 l2 -588 -100 0 -100 0 0 590 0 591 98
-3 97 -3 3 -587z m5250 0 l2 -588 -100 0 -100 0 0 590 0 591 98 -3 97 -3 3
-587z m-5618 -1103 l0 -95 -425 0 -425 0 0 -255 0 -255 373 -2 372 -3 0 -90 0
-90 -372 -3 -373 -2 0 -370 0 -370 -110 0 -110 0 0 815 0 815 535 0 535 0 0
-95z m1540 -25 l0 -120 -95 0 -95 0 0 120 0 120 95 0 95 0 0 -120z m-727 -321
c114 -20 186 -65 235 -148 l27 -46 5 -406 c6 -460 3 -442 79 -437 l46 2 3 -76
3 -76 -31 -11 c-54 -18 -124 -23 -167 -12 -53 14 -101 68 -109 122 l-7 40 -31
-29 c-145 -138 -409 -180 -599 -95 -128 58 -192 192 -166 351 12 76 27 109 76
163 70 77 187 117 464 159 148 23 212 47 234 91 39 74 1 177 -80 219 -45 22
-61 25 -165 25 -98 0 -122 -3 -165 -23 -27 -12 -58 -30 -69 -40 -25 -23 -56
-90 -56 -124 l0 -28 -101 0 -102 0 7 53 c15 110 99 232 192 279 115 59 305 77
477 47z m1597 -84 c0 -118 8 -108 -95 -119 -113 -12 -196 -58 -252 -139 -64
-94 -67 -115 -71 -499 l-3 -348 -100 0 -99 0 0 590 0 590 90 0 89 0 3 -121 3
-120 43 65 c89 136 190 191 375 205 15 1 17 -10 17 -104z m865 80 c105 -29
187 -105 219 -203 29 -86 35 -194 36 -589 l0 -393 -100 0 -99 0 -3 438 -3 437
-28 47 c-18 31 -44 57 -75 75 -42 25 -56 28 -142 28 -84 0 -102 -3 -152 -28
-70 -34 -130 -100 -160 -176 -22 -54 -23 -69 -26 -438 l-3 -383 -95 0 -94 0 0
590 0 590 90 0 89 0 3 -89 3 -90 45 57 c101 126 305 179 495 127z m1088 10
c135 -15 283 -132 353 -278 48 -102 63 -164 71 -284 l6 -103 -443 0 -443 0 7
-61 c16 -134 83 -236 191 -289 45 -22 63 -25 170 -25 105 0 125 3 161 22 55
29 110 94 129 154 l17 49 94 0 c109 0 109 0 73 -97 -77 -206 -237 -308 -484
-307 -176 0 -285 42 -393 150 -109 109 -166 273 -166 474 0 183 57 334 170
446 106 106 273 171 404 157 14 -1 51 -5 83 -8z m1166 -11 c162 -36 271 -153
283 -304 l3 -45 -94 0 -93 0 -19 50 c-38 102 -144 153 -299 142 -131 -9 -210
-62 -210 -142 0 -84 87 -137 300 -186 245 -55 307 -79 381 -146 67 -61 84
-103 84 -213 0 -84 -3 -102 -28 -152 -70 -142 -221 -211 -467 -211 -142 -1
-218 15 -312 65 -103 55 -173 158 -185 273 l-6 55 96 0 97 0 5 -27 c12 -59 49
-116 94 -144 61 -39 130 -52 252 -48 86 4 113 9 154 29 70 35 98 79 93 148 -8
92 -71 134 -276 182 -214 51 -249 61 -311 90 -149 71 -211 205 -166 356 58
196 326 294 624 228z m1089 0 c163 -36 267 -146 288 -302 l7 -53 -98 3 -98 3
-13 46 c-15 52 -63 101 -123 127 -47 20 -208 22 -274 3 -95 -27 -138 -105
-100 -178 30 -58 113 -95 322 -143 213 -49 294 -84 360 -156 59 -65 75 -116
69 -222 -9 -162 -114 -272 -305 -319 -93 -23 -296 -23 -380 0 -183 49 -290
163 -310 329 l-6 48 100 0 100 0 6 -41 c11 -80 83 -148 181 -170 30 -6 99 -10
162 -7 122 4 170 22 218 78 32 38 36 115 9 161 -33 55 -163 105 -388 149 -159
31 -289 110 -337 204 -27 53 -30 182 -6 238 23 52 104 136 158 163 118 60 296
75 458 39z m-5078 -594 l0 -590 -95 0 -95 0 0 590 0 590 95 0 95 0 0 -590z
m-1480 -1105 l0 -95 -270 0 -270 0 0 -720 0 -720 -110 0 -110 0 0 720 0 720
-270 0 -270 0 0 95 0 95 650 0 650 0 0 -95z m3180 -180 l0 -175 120 0 121 0
-3 -87 -3 -88 -117 -3 -118 -3 0 -373 c0 -243 4 -384 11 -404 13 -39 53 -52
157 -52 l72 0 0 -86 0 -86 -147 4 c-135 3 -152 5 -192 28 -28 16 -52 39 -65
65 -20 38 -21 57 -24 473 l-3 432 -99 0 -100 0 0 90 0 90 100 0 100 0 0 175 0
175 95 0 95 0 0 -175z m-2672 -252 c3 -117 11 -107 -100 -117 -127 -10 -244
-97 -287 -211 -34 -91 -41 -168 -41 -477 l0 -298 -100 0 -100 0 2 588 3 587
93 3 92 3 0 -123 1 -123 20 37 c10 21 46 66 79 101 67 72 142 112 237 126 103
16 98 20 101 -96z m1877 86 c128 -23 226 -91 274 -193 20 -44 43 -145 34 -158
-2 -5 -46 -8 -97 -8 l-94 0 -6 34 c-11 55 -57 110 -117 136 -45 20 -71 24
-154 25 -163 0 -233 -39 -243 -135 -4 -49 -3 -52 36 -89 47 -45 106 -67 297
-110 222 -51 305 -87 370 -163 48 -56 69 -132 62 -219 -14 -162 -131 -279
-322 -320 -75 -16 -274 -17 -341 -2 -186 43 -305 151 -329 298 -3 22 -8 50
-11 63 -4 22 -3 22 94 22 l98 0 13 -47 c17 -67 55 -111 120 -142 52 -24 66
-26 191 -26 124 0 139 2 184 25 63 32 88 66 93 127 10 115 -59 154 -410 237
-240 56 -342 140 -355 292 -21 265 243 417 613 353z m-1585 -455 l5 -441 30
-48 c44 -70 95 -95 200 -95 121 0 177 20 246 89 47 48 61 69 78 125 20 64 21
91 21 442 l0 374 100 0 100 0 0 -590 0 -590 -95 0 -95 0 0 86 0 86 -38 -49
c-82 -103 -182 -146 -342 -147 -213 -1 -332 72 -387 239 -15 43 -18 112 -21
508 l-3 458 98 -3 98 -3 5 -441z"/>
<path d="M3913 11136 c-169 -55 -263 -229 -250 -461 12 -201 97 -340 237 -390
49 -17 187 -20 242 -5 21 6 57 25 80 43 99 76 145 180 155 352 11 208 -65 373
-203 441 -66 32 -194 42 -261 20z"/>
<path d="M5845 11141 c-165 -44 -257 -202 -256 -441 0 -197 68 -331 203 -401
59 -31 209 -39 273 -15 147 57 222 183 232 391 8 170 -24 279 -109 371 -60 65
-130 95 -230 100 -46 2 -96 0 -113 -5z"/>
<path d="M2955 10700 c-27 -10 -113 -27 -190 -39 -77 -11 -156 -25 -176 -31
-145 -42 -204 -201 -110 -300 47 -50 100 -64 218 -58 78 4 103 10 158 37 77
38 130 96 150 165 15 51 21 247 8 245 -5 -1 -30 -10 -58 -19z"/>
<path d="M5912 8654 c-18 -8 -76 -21 -130 -29 -267 -42 -300 -52 -359 -108
-67 -63 -66 -186 2 -246 48 -42 102 -54 212 -49 78 4 103 10 158 37 77 38 130
96 150 165 15 51 21 247 8 245 -5 0 -23 -7 -41 -15z"/>
<path d="M9950 8656 c-23 -13 -145 -36 -270 -52 -124 -15 -221 -61 -252 -118
-37 -69 -26 -160 26 -212 44 -44 101 -57 213 -52 78 4 103 10 158 37 74 37
127 93 149 159 17 47 23 252 9 252 -5 -1 -19 -7 -33 -14z"/>
<path d="M4214 6599 c-28 -10 -105 -25 -170 -34 -246 -33 -325 -77 -348 -194
-15 -81 42 -169 125 -191 27 -8 80 -10 136 -8 78 4 103 10 158 37 77 38 130
96 150 165 15 51 21 247 8 245 -5 -1 -31 -10 -59 -20z"/>
<path d="M7524 7032 c-66 -23 -124 -70 -162 -130 -31 -47 -66 -157 -56 -173 3
-5 154 -9 336 -9 l331 0 -6 39 c-13 103 -92 212 -184 257 -73 36 -184 43 -259
16z"/>
</g>
</svg>
