<?xml version="1.0" standalone="no"?>
<!DOCTYPE svg PUBLIC "-//W3C//DTD SVG 20010904//EN"
 "http://www.w3.org/TR/2001/REC-SVG-20010904/DTD/svg10.dtd">
<svg version="1.0" xmlns="http://www.w3.org/2000/svg"
 width="400.000000pt" height="400.000000pt" viewBox="0 0 400.000000 400.000000"
 preserveAspectRatio="xMidYMid meet">

<g transform="translate(0.000000,400.000000) scale(0.100000,-0.100000)"
fill="#8d0f5c" stroke="none">
<path d="M1905 3223 c-88 -5 -97 -11 -52 -34 39 -21 80 -76 91 -123 7 -27 6
-28 -21 -22 -15 4 -50 20 -76 37 -27 16 -53 27 -58 23 -12 -7 -12 -221 0 -228
5 -3 35 10 67 29 32 20 66 34 74 32 37 -7 -2 -112 -58 -155 -27 -20 -48 -27
-96 -30 -81 -4 -111 12 -111 58 0 19 -8 46 -18 60 -24 35 -21 67 8 86 21 14
31 15 51 5 34 -15 34 -15 34 19 0 58 -69 92 -111 55 -15 -15 -17 -13 -23 20
-7 33 -58 105 -76 105 -17 0 -32 -62 -28 -110 5 -48 4 -49 -19 -44 -53 14 -99
-55 -68 -102 l15 -23 25 24 c30 31 40 31 70 1 20 -20 23 -30 18 -65 -4 -32 -1
-46 12 -61 18 -20 18 -21 -10 -50 -58 -60 -147 -64 -210 -8 -46 40 -47 63 -2
55 17 -3 40 -8 50 -12 24 -10 22 15 -5 61 -12 20 -31 64 -43 97 -20 55 -45 87
-45 57 0 -19 -41 -71 -51 -65 -13 8 -11 85 2 124 17 49 2 55 -72 25 -35 -14
-65 -27 -67 -28 -1 -2 27 -68 64 -147 36 -79 74 -164 84 -189 10 -25 32 -75
49 -112 l31 -68 53 22 c83 34 231 76 330 95 67 13 144 17 287 17 143 0 220 -4
287 -17 100 -19 247 -61 331 -96 l53 -21 21 47 c12 27 63 142 114 257 52 115
93 211 91 212 -1 1 -31 14 -66 28 -70 28 -87 24 -71 -18 13 -34 13 -136 1
-136 -11 0 -51 54 -51 69 0 26 -28 -4 -39 -42 -7 -23 -26 -66 -42 -96 -34 -63
-37 -86 -11 -76 9 4 32 9 50 12 44 8 43 -15 -3 -55 -63 -56 -152 -52 -210 8
-27 28 -27 31 -12 48 11 12 17 36 17 70 0 44 4 54 25 68 23 15 27 15 50 0 14
-9 25 -22 25 -29 1 -20 40 34 40 55 0 10 -12 30 -26 45 -19 19 -32 24 -53 20
l-28 -6 5 49 c4 48 -12 110 -28 110 -18 0 -69 -72 -76 -105 -6 -33 -8 -35 -23
-20 -39 34 -111 3 -111 -48 0 -33 7 -37 40 -24 24 9 32 8 49 -8 26 -22 27 -53
4 -85 -10 -14 -18 -41 -18 -60 0 -46 -30 -62 -110 -58 -92 5 -157 65 -167 153
-4 42 17 42 86 0 32 -19 62 -32 67 -29 12 7 12 221 0 228 -5 4 -31 -7 -58 -23
-26 -17 -60 -33 -75 -36 -26 -7 -26 -6 -19 27 12 50 38 85 84 113 27 16 36 26
27 29 -23 7 -197 13 -265 9z"/>
<path d="M1093 2570 c-86 -52 -82 -189 7 -235 24 -13 30 -22 30 -50 0 -25 -5
-35 -19 -40 -11 -3 -34 -22 -50 -41 -55 -62 -37 -161 36 -201 27 -14 33 -24
33 -50 0 -26 -6 -36 -30 -48 -92 -47 -92 -193 0 -240 25 -13 30 -22 30 -51 0
-27 -5 -36 -22 -43 -42 -16 -71 -57 -76 -109 -5 -62 17 -107 63 -129 30 -15
35 -21 35 -53 0 -32 -5 -38 -35 -53 -47 -22 -68 -67 -62 -130 12 -132 189
-162 247 -42 34 70 9 144 -61 180 -43 23 -40 66 5 94 40 25 61 54 71 99 10 46
-25 113 -70 138 -29 15 -35 24 -35 52 0 22 6 35 18 39 9 3 29 17 44 31 72 66
53 174 -39 221 -16 8 -23 21 -23 41 0 24 8 35 39 54 28 18 44 38 56 70 17 44
17 48 0 92 -12 32 -28 52 -56 70 -53 33 -55 73 -4 103 20 11 44 34 53 51 13
24 24 30 50 30 l32 0 0 -720 c0 -396 3 -720 8 -720 4 0 22 34 41 76 19 42 54
106 77 142 24 37 44 70 44 75 0 4 -16 7 -35 7 l-35 0 0 100 0 100 85 0 85 0 0
-100 c0 -82 -3 -100 -15 -100 -20 0 -19 -7 13 -86 16 -38 37 -102 47 -141 10
-40 22 -73 25 -73 3 0 12 27 18 59 7 33 28 99 47 146 40 100 39 95 20 95 -12
0 -15 18 -15 100 l0 100 80 0 80 0 0 -100 c0 -82 -3 -100 -15 -100 -20 0 -20
-3 20 -100 19 -47 40 -111 46 -142 6 -32 15 -58 19 -58 4 0 12 26 19 58 7 31
28 96 47 143 39 99 39 99 19 99 -12 0 -15 18 -15 100 l0 100 85 0 85 0 0 -96
c0 -87 -2 -96 -20 -101 -11 -3 -20 -6 -20 -7 0 -1 15 -40 34 -87 19 -46 40
-112 47 -147 7 -34 16 -62 20 -62 4 0 12 24 19 53 7 28 28 93 46 143 39 106
39 104 19 104 -12 0 -15 18 -15 100 l0 100 85 0 85 0 0 -100 0 -100 -35 0
c-42 0 -43 -6 -10 -51 36 -48 89 -145 110 -202 10 -26 22 -47 26 -47 5 0 9
322 9 720 l0 720 33 0 c25 0 36 -6 49 -30 9 -17 33 -40 53 -51 49 -29 49 -71
0 -101 -90 -52 -90 -184 0 -236 49 -30 49 -72 1 -100 -47 -28 -69 -65 -69
-117 0 -52 22 -89 69 -117 28 -16 34 -26 34 -53 0 -24 -5 -35 -19 -40 -32 -10
-70 -56 -81 -96 -15 -53 13 -117 64 -148 50 -31 50 -71 0 -100 -49 -29 -79
-97 -65 -149 6 -21 25 -51 41 -67 28 -26 39 -30 90 -30 54 0 63 3 91 32 62 61
48 175 -26 210 -31 15 -35 21 -35 54 0 32 4 38 31 49 70 29 93 140 42 200 -14
17 -37 36 -50 41 -18 7 -23 16 -23 43 0 29 5 38 30 51 92 47 92 193 0 240 -24
13 -30 22 -30 49 0 28 5 36 31 46 42 18 69 65 69 118 0 54 -23 95 -67 119 -27
14 -33 24 -33 50 0 26 6 36 30 48 91 47 92 193 1 240 -63 32 -144 7 -179 -55
l-17 -30 -705 0 -705 0 -17 30 c-37 65 -123 88 -185 50z m117 -70 c23 -23 26
-58 7 -84 -12 -16 -16 -17 -35 -5 -18 11 -26 11 -42 1 -26 -16 -26 -16 -40 17
-12 30 -2 66 24 83 21 14 66 8 86 -12z m1674 5 c22 -22 28 -49 17 -79 -12 -30
-14 -31 -41 -14 -16 10 -24 10 -42 -1 -19 -12 -23 -11 -35 5 -19 26 -16 61 7
84 24 24 72 26 94 5z m-1254 -215 l0 -100 -85 0 -85 0 0 100 0 100 85 0 85 0
0 -100z m300 0 l0 -100 -82 0 -83 0 3 100 3 100 80 0 79 0 0 -100z m308 -2 l3
-98 -86 0 -85 0 0 100 0 101 83 -3 82 -3 3 -97z m302 2 l0 -100 -85 0 -85 0 0
100 0 100 85 0 85 0 0 -100z m-1366 -134 c9 3 16 11 16 17 0 5 9 2 20 -8 24
-22 26 -62 4 -86 -14 -16 -18 -16 -31 -3 -14 13 -18 13 -38 0 -21 -14 -25 -14
-36 0 -16 20 -16 69 1 89 12 14 15 14 30 0 9 -9 25 -13 34 -9z m1665 -6 c5 0
15 7 22 16 12 15 15 14 31 -6 22 -27 23 -49 2 -78 -14 -20 -17 -21 -37 -7 -19
13 -23 13 -38 -1 -15 -14 -18 -13 -33 8 -20 28 -20 48 0 76 14 20 17 21 30 7
9 -8 19 -15 23 -15z m-1209 -165 l0 -105 -85 0 -85 0 0 98 c0 54 3 102 7 105
3 4 42 7 85 7 l78 0 0 -105z m300 0 l0 -105 -80 0 -80 0 0 105 0 105 80 0 80
0 0 -105z m305 0 l0 -100 -82 -3 -83 -3 0 106 0 106 83 -3 82 -3 0 -100z m303
-2 l3 -103 -86 0 -85 0 0 105 0 106 83 -3 82 -3 3 -102z m-1356 -154 c19 12
23 11 35 -5 7 -10 13 -27 13 -39 0 -12 -6 -29 -13 -39 -12 -16 -16 -17 -35 -5
-18 11 -26 11 -42 1 -25 -16 -36 -10 -44 24 -5 17 -1 35 9 50 13 21 18 22 35
12 16 -10 24 -10 42 1z m1638 -1 c16 -10 24 -10 40 0 26 16 26 16 39 -16 8
-20 9 -36 2 -55 -12 -31 -14 -32 -41 -15 -16 10 -24 10 -42 -1 -19 -12 -23
-11 -35 5 -16 21 -17 48 -3 75 13 22 14 23 40 7z m-1190 -148 l0 -100 -85 0
-85 0 0 100 0 100 85 0 85 0 0 -100z m300 0 l0 -100 -80 0 -80 0 0 100 0 100
80 0 80 0 0 -100z m308 3 l-3 -98 -82 -3 -83 -3 0 101 0 100 85 0 86 0 -3 -97z
m302 -3 l0 -100 -85 0 -85 0 0 100 0 100 85 0 85 0 0 -100z m-1393 -191 c8 -8
17 -7 34 1 19 11 24 10 36 -6 17 -23 16 -54 -1 -77 -12 -16 -17 -16 -35 -5
-17 10 -25 10 -41 1 -16 -11 -21 -9 -35 9 -18 26 -18 29 -5 62 10 27 29 33 47
15z m1693 -1 c8 0 24 2 34 4 31 5 44 -43 22 -76 -14 -23 -19 -24 -36 -14 -16
10 -24 10 -41 0 -18 -11 -23 -11 -35 5 -26 35 -8 101 24 87 9 -4 24 -7 32 -6z
m-1658 -329 c19 12 23 11 35 -5 33 -46 2 -104 -56 -104 -21 0 -43 6 -49 13
-21 26 -24 58 -8 82 14 22 19 23 36 13 16 -10 24 -10 42 1z m1638 -1 c16 -10
24 -10 40 0 17 10 22 9 36 -13 16 -24 13 -56 -8 -82 -6 -7 -28 -13 -49 -13
-57 0 -87 52 -57 100 15 24 13 23 38 8z"/>
</g>
</svg>
