<?xml version="1.0" standalone="no"?>
<!DOCTYPE svg PUBLIC "-//W3C//DTD SVG 20010904//EN"
 "http://www.w3.org/TR/2001/REC-SVG-20010904/DTD/svg10.dtd">
<svg version="1.0" xmlns="http://www.w3.org/2000/svg"
 width="800.000000pt" height="369.000000pt" viewBox="0 0 800.000000 369.000000"
 preserveAspectRatio="xMidYMid meet">

<g transform="translate(0.000000,369.000000) scale(0.100000,-0.100000)"
fill="#8d0f5c" stroke="none">
<path d="M740 3217 c-14 -6 -26 -12 -28 -13 -2 -1 9 -19 23 -40 24 -36 25 -39
9 -51 -10 -7 -32 -13 -48 -13 -86 0 -149 -40 -183 -117 -12 -26 -35 -79 -52
-117 -49 -108 -39 -192 32 -272 58 -66 136 -102 261 -119 63 -9 53 -15 -89
-60 -100 -31 -115 -39 -160 -85 -27 -27 -47 -51 -44 -53 2 -2 29 -9 60 -16
l57 -12 -15 -29 c-8 -17 -22 -30 -31 -30 -19 0 -151 -62 -152 -71 0 -3 37 -28
83 -55 88 -53 112 -57 233 -39 61 9 76 -5 36 -31 -53 -35 -135 -120 -153 -159
-25 -54 -24 -100 6 -192 14 -43 25 -100 25 -126 0 -44 27 -118 48 -131 5 -3 7
-38 5 -78 -4 -64 -2 -77 19 -108 31 -47 86 -73 132 -64 45 8 91 58 107 116
l12 43 23 -85 c45 -166 109 -293 214 -424 92 -114 234 -235 363 -311 l48 -28
101 68 c116 79 257 209 328 304 90 118 165 284 204 446 8 33 15 54 15 46 2
-32 43 -99 67 -109 38 -18 88 -14 116 8 41 32 77 197 47 215 -7 5 -6 12 4 23
8 10 38 68 67 130 103 223 79 319 -109 443 -77 51 -76 59 5 34 78 -24 163 -20
215 10 24 14 56 31 72 37 15 7 27 15 27 18 0 8 -94 70 -106 70 -9 0 -44 60
-44 75 0 3 18 5 40 5 40 0 110 23 110 36 0 8 -86 85 -114 101 -12 7 -40 12
-64 13 -26 0 -50 6 -59 16 -14 14 -13 16 8 21 13 4 59 24 101 45 144 72 199
171 163 294 -9 32 -32 91 -49 129 -18 39 -41 91 -50 117 -16 43 -93 128 -116
128 -11 0 -22 -49 -14 -62 4 -7 -1 -8 -17 -3 -13 4 -25 8 -27 10 -1 1 2 23 7
49 10 56 3 62 -62 53 -28 -4 -49 -14 -65 -32 -27 -32 -24 -51 29 -156 42 -84
54 -93 168 -125 l63 -17 -6 -41 c-9 -55 -47 -117 -93 -154 -35 -27 -154 -92
-169 -92 -3 0 6 14 20 31 14 17 26 36 26 43 0 6 16 36 35 66 19 30 35 67 35
83 0 28 -19 117 -26 117 -2 0 -26 -14 -55 -30 -48 -29 -52 -30 -65 -13 -7 10
-14 21 -14 25 0 8 -144 78 -159 78 -10 0 -28 -112 -22 -140 1 -8 16 -35 32
-59 51 -78 33 -168 -41 -206 -38 -20 -142 -19 -180 0 -16 9 -32 26 -36 39 -3
14 -12 27 -19 29 -10 4 -8 26 10 101 13 53 20 98 16 100 -12 8 -126 26 -162
26 -55 0 -69 -8 -69 -41 0 -19 -5 -29 -15 -29 -11 0 -15 12 -15 45 l0 45 -95
0 -95 0 0 -45 c0 -33 -4 -45 -15 -45 -10 0 -15 10 -15 29 0 17 -6 31 -16 35
-40 15 -221 -9 -217 -29 0 -6 9 -50 19 -98 12 -60 15 -90 8 -95 -21 -14 -23
-41 -3 -66 l20 -26 -56 0 c-68 0 -117 21 -151 65 -22 30 -24 40 -22 131 1 55
-2 120 -6 145 l-8 46 -65 -35 c-36 -19 -72 -47 -82 -62 -15 -25 -19 -27 -41
-15 -14 7 -44 15 -67 19 l-42 6 10 -32 c5 -18 9 -46 9 -63 0 -23 16 -47 73
-107 40 -43 70 -78 67 -78 -26 0 -135 48 -180 79 -94 64 -162 187 -114 205 29
11 73 6 90 -11 15 -16 17 -16 30 2 7 10 11 28 8 41 -5 18 0 26 23 37 15 8 38
26 50 39 30 32 73 134 73 172 0 62 -57 92 -120 63z m84 -29 c21 -29 20 -49 -2
-95 -11 -21 -23 -48 -28 -61 -7 -17 -9 -7 -9 41 0 43 -6 71 -17 89 -17 26 -17
28 0 37 26 16 39 13 56 -11z m1660 -25 c-10 -41 -20 -48 -49 -35 -54 25 -40
62 23 62 30 0 32 -2 26 -27z m-171 -264 c17 -18 27 -40 27 -59 0 -38 10 -38
32 -1 9 16 28 37 43 47 34 22 48 9 49 -48 1 -34 -6 -53 -31 -88 -18 -24 -33
-52 -33 -63 0 -10 -25 -45 -57 -78 -31 -32 -54 -61 -51 -64 3 -3 48 13 99 35
154 66 237 141 262 237 l13 52 28 -18 c67 -44 85 -126 45 -208 -34 -70 -130
-131 -281 -179 -64 -20 -75 -34 -27 -34 18 0 46 -9 63 -19 18 -11 49 -19 73
-19 35 1 51 -6 88 -36 25 -21 45 -41 45 -46 0 -16 -64 -22 -114 -10 -27 6 -51
9 -53 6 -2 -2 9 -23 26 -47 17 -23 31 -45 31 -49 0 -11 -133 1 -147 13 -18 13
-16 62 2 77 28 23 15 31 -43 29 -42 -2 -67 3 -90 16 -18 11 -32 22 -32 26 0 4
14 19 30 32 17 14 30 29 30 34 0 4 -35 23 -77 42 -76 33 -76 33 -148 21 -59
-10 -76 -10 -96 1 -23 13 -20 14 41 19 93 8 137 35 174 107 27 54 21 102 -24
176 -41 67 -45 82 -34 135 l6 31 52 -20 c28 -11 63 -33 79 -50z m-665 -51 l-3
-42 50 -8 c66 -10 75 -5 75 38 l0 36 48 -7 c65 -9 92 -16 92 -24 -2 -37 -40
-165 -48 -164 -67 15 -308 22 -425 13 -76 -6 -143 -11 -149 -13 -9 -2 -46 123
-48 159 0 13 19 19 93 29 l47 7 0 -36 c0 -43 9 -48 75 -38 l50 8 -3 42 -3 42
76 0 75 0 -2 -42z m-218 -201 c0 -21 -6 -24 -82 -34 -46 -6 -86 -9 -90 -6 -5
2 -8 13 -8 23 0 15 10 20 58 25 31 4 62 8 67 10 6 2 20 4 33 4 17 1 22 -5 22
-22z m210 3 c0 -19 -7 -20 -89 -20 -85 0 -110 8 -96 30 3 6 46 10 96 10 82 0
89 -1 89 -20z m226 1 c38 -10 42 -47 4 -44 -14 1 -62 5 -107 9 -92 8 -109 14
-99 39 6 16 16 17 89 11 46 -4 97 -10 113 -15z m-176 -77 c28 -72 4 -139 -80
-231 -62 -68 -87 -124 -74 -166 11 -35 24 -47 56 -47 25 0 28 3 26 27 -3 26 0
28 49 36 41 7 59 16 82 42 29 33 50 88 51 130 1 12 12 -2 30 -37 l30 -57 -16
-63 -16 -63 -81 0 c-94 0 -130 -15 -232 -94 -85 -66 -117 -87 -142 -95 -19 -6
-23 -1 -38 51 -38 132 -106 260 -177 336 -36 38 -36 38 -13 47 33 13 254 56
383 76 106 16 114 19 123 43 15 38 -3 71 -38 71 -15 0 -68 -20 -118 -44 -70
-34 -113 -47 -194 -60 -57 -9 -106 -14 -109 -11 -15 15 114 119 158 128 14 2
94 5 178 6 l152 1 10 -26z m-518 -96 c-9 -18 -18 -35 -19 -37 -1 -1 -11 4 -23
12 -22 15 -22 16 16 36 22 11 40 20 41 21 1 0 -6 -15 -15 -32z m-162 -98 c-6
-12 -10 -42 -9 -68 3 -45 2 -47 -30 -56 -26 -8 -41 -5 -79 13 l-47 23 40 35
c38 33 126 85 133 78 2 -2 -2 -13 -8 -25z m1199 -47 c44 22 50 21 86 -7 l30
-25 -39 -16 c-60 -26 -174 0 -214 48 -10 11 -2 11 46 -1 53 -14 61 -14 91 1z
m-1001 -102 l33 -48 -38 -61 -38 -61 -127 -1 -128 0 0 -46 c0 -45 -3 -50 -89
-140 -60 -62 -99 -114 -119 -155 l-30 -62 -25 25 c-33 33 -51 97 -37 132 13
35 89 116 167 178 35 27 63 53 63 56 0 8 -139 6 -195 -3 l-40 -6 41 19 c22 11
55 38 73 61 25 31 40 41 62 41 40 0 46 22 15 53 -14 15 -26 33 -26 42 0 22 65
19 105 -5 36 -22 65 -27 111 -16 27 6 35 3 53 -20 l21 -27 52 46 c29 25 55 46
58 47 3 0 20 -22 38 -49z m731 -67 c28 -42 51 -82 51 -90 0 -10 -13 -14 -47
-13 -40 0 -52 5 -70 28 -21 27 -22 33 -12 90 6 33 15 61 19 61 5 0 31 -34 59
-76z m-1389 -21 c0 -10 9 -31 20 -48 24 -36 25 -55 5 -55 -17 0 -98 40 -129
62 -17 14 -17 16 15 36 42 27 89 29 89 5z m737 -79 c-3 -3 -26 -4 -52 -2 l-47
3 33 45 33 45 19 -43 c10 -24 16 -46 14 -48z m529 11 c17 -13 10 -14 -71 -14
-83 0 -88 1 -65 14 33 19 111 19 136 0z m-556 -70 c0 -3 -7 -17 -16 -31 -9
-13 -15 -26 -13 -28 2 -1 46 -25 97 -51 l93 -49 82 82 82 82 153 0 153 0 -22
-29 c-27 -37 -22 -60 21 -89 29 -20 44 -23 87 -20 31 3 61 12 72 22 18 17 19
15 31 -56 22 -132 66 -237 99 -238 12 0 13 -21 8 -122 -10 -204 19 -217 -311
143 -158 173 -291 315 -296 317 -4 2 -137 -138 -295 -310 -158 -172 -290 -314
-295 -316 -15 -6 -21 76 -26 386 l-6 312 151 0 c83 0 151 -2 151 -5z m730 -1
c0 -3 -5 -14 -10 -25 -10 -18 -13 -18 -40 -4 -41 21 -37 35 10 35 22 0 40 -3
40 -6z m-53 -68 c-5 -15 -47 -20 -59 -8 -6 6 -6 17 1 31 11 20 13 20 37 5 13
-9 23 -22 21 -28z m476 -142 c31 -36 57 -73 57 -83 0 -15 -11 -20 -57 -26 -57
-7 -152 -43 -153 -57 0 -4 17 -24 38 -45 l37 -38 -48 -47 -49 -47 7 97 c6 78
11 101 28 120 34 36 35 123 3 203 -14 36 -26 69 -26 73 0 12 100 -80 163 -150z
m-1503 -19 c0 -69 -4 -125 -9 -125 -20 0 -44 89 -39 144 4 47 28 106 43 106 3
0 5 -56 5 -125z m-68 22 c-3 -51 1 -84 12 -111 9 -21 16 -40 16 -42 0 -1 -14
2 -31 8 -17 6 -54 8 -85 4 -30 -3 -54 -4 -54 -2 0 14 33 78 60 116 26 35 80
100 85 100 0 0 -1 -33 -3 -73z m1662 -217 c-52 -110 -61 -121 -99 -140 -23
-11 -51 -20 -64 -20 -15 0 -21 -5 -19 -16 5 -27 -21 -28 -27 -1 -9 34 16 79
65 118 47 38 50 49 12 49 -26 0 -83 43 -71 54 17 15 73 36 96 36 45 0 101 19
130 45 46 39 40 6 -23 -125z m-774 -18 c0 -96 -7 -112 -51 -112 -27 0 -39 15
-39 51 0 12 5 16 15 13 23 -9 18 12 -10 42 -19 21 -25 23 -25 10 0 -9 -7 -19
-15 -22 -8 -4 -15 -12 -15 -20 0 -8 6 -11 15 -8 11 5 15 -1 15 -18 0 -31 -18
-48 -50 -48 -32 0 -50 17 -50 48 0 17 4 23 15 18 9 -3 15 0 15 8 0 8 -7 16
-15 20 -8 3 -15 13 -15 22 0 13 -6 11 -25 -10 -28 -30 -33 -51 -10 -42 10 3
15 -1 15 -13 0 -35 -12 -51 -36 -51 -24 0 -24 2 -24 93 0 52 3 97 7 100 3 4
69 7 145 7 l138 0 0 -88z m-820 -31 c0 -44 3 -88 6 -98 5 -15 3 -15 -7 2 -20
33 -62 76 -94 96 l-30 19 32 0 c24 0 38 7 55 30 12 17 25 30 30 30 4 0 8 -36
8 -79z m1526 -136 c13 -53 -26 -84 -58 -46 -25 32 -23 48 10 59 39 15 41 14
48 -13z m-76 -67 c0 -10 -12 -10 -29 1 -8 5 -11 16 -7 27 6 16 7 16 21 -2 8
-10 15 -22 15 -26z m-1542 20 c20 -20 15 -66 -9 -78 -28 -16 -33 -8 -19 34 6
20 9 40 5 46 -9 14 8 13 23 -2z m560 -115 l-3 -98 -32 -3 c-23 -2 -34 2 -42
17 -12 21 -4 54 10 45 15 -9 10 15 -8 36 -20 23 -33 26 -33 6 0 -8 -7 -16 -15
-20 -8 -3 -15 -10 -15 -17 0 -6 7 -8 16 -5 12 5 15 -1 12 -27 -3 -30 -5 -32
-43 -32 -38 0 -40 2 -43 34 -2 20 0 31 7 27 5 -4 12 -2 16 3 3 5 -1 13 -8 18
-7 4 -17 16 -20 26 -7 20 -27 14 -27 -8 0 -7 -7 -16 -16 -19 -8 -3 -12 -10 -9
-16 4 -6 11 -8 16 -4 7 4 9 -7 7 -27 -2 -29 -7 -35 -30 -37 l-28 -3 0 88 c0
56 4 93 12 101 8 8 55 12 145 12 l134 0 -3 -97z m700 9 c3 -96 -6 -115 -52
-110 -27 3 -31 7 -34 37 -2 20 0 31 7 27 5 -4 12 -2 16 4 3 6 -1 13 -9 16 -9
3 -16 12 -16 19 0 22 -20 28 -27 8 -3 -10 -13 -22 -20 -26 -7 -5 -11 -13 -8
-18 4 -5 11 -7 16 -3 7 4 9 -7 7 -27 -3 -32 -5 -34 -43 -34 -38 0 -40 2 -43
32 -3 26 0 32 12 27 9 -3 16 -1 16 5 0 7 -7 14 -15 17 -8 4 -15 12 -15 20 0
20 -13 17 -33 -6 -18 -21 -23 -45 -8 -36 14 9 22 -24 11 -45 -6 -11 -21 -19
-35 -19 -25 0 -25 2 -25 81 0 123 -4 120 158 117 l137 -3 3 -83z m-1204 32
c11 -28 -5 -84 -27 -99 -28 -20 -87 -19 -115 1 -15 10 -22 25 -22 49 0 41 15
53 39 31 25 -23 58 -20 84 8 27 29 33 31 41 10z m881 -214 c94 -102 178 -195
188 -206 17 -21 16 -23 -49 -93 -66 -72 -189 -173 -272 -225 -39 -25 -44 -25
-70 -12 -99 51 -357 281 -350 312 4 17 369 416 377 412 4 -2 83 -86 176 -188z"/>
<path d="M1484 1021 c-26 -12 -84 -77 -84 -97 0 -8 15 -22 33 -30 l32 -15 -34
7 c-39 7 -51 -5 -51 -54 0 -70 54 -147 89 -125 15 10 17 8 14 -11 -4 -18 2
-26 28 -36 18 -8 47 -14 64 -14 17 0 46 6 64 14 26 10 32 18 28 36 -3 19 -1
21 14 11 35 -22 89 55 89 125 0 49 -12 61 -51 54 l-34 -7 33 15 c42 19 40 38
-6 88 -34 36 -45 41 -83 42 -43 1 -44 0 -48 -34 l-4 -35 -6 35 c-5 30 -10 35
-36 37 -16 1 -39 -2 -51 -6z m70 -37 c6 -15 -37 -68 -47 -58 -2 3 -10 -2 -17
-11 -16 -19 -34 -19 -49 -1 -9 11 -3 21 30 50 46 39 73 45 83 20z m125 -20
c33 -29 39 -39 30 -50 -15 -18 -33 -18 -49 1 -7 9 -15 14 -17 11 -10 -10 -53
43 -47 58 10 25 37 19 83 -20z m-85 -40 c22 -8 10 -24 -19 -24 -27 0 -42 16
-23 23 19 8 24 8 42 1z m-72 -69 c-6 -14 -16 -25 -22 -25 -13 0 -13 12 0 46 8
20 14 24 22 16 9 -9 9 -18 0 -37z m133 3 c5 -18 3 -28 -4 -28 -15 0 -34 39
-26 57 7 21 21 7 30 -29z m-192 -18 c26 -51 30 -85 11 -101 -14 -11 -18 -11
-30 6 -19 25 -37 93 -30 111 9 24 34 16 49 -16z m273 16 c7 -18 -11 -86 -30
-111 -21 -29 -49 -3 -41 37 16 69 56 112 71 74z m-186 -61 c24 -29 4 -38 -25
-12 -28 24 -28 26 -9 27 12 0 27 -7 34 -15z m75 -12 c-18 -16 -31 -21 -33 -14
-6 18 18 41 42 41 19 -1 19 -3 -9 -27z m13 -70 c2 -17 -4 -23 -28 -28 -17 -4
-47 -4 -66 0 -29 5 -35 10 -32 28 6 41 120 41 126 0z"/>
<path d="M6105 2851 c-42 -11 -72 -31 -84 -58 -33 -73 10 -137 99 -149 53 -7
90 -31 90 -58 0 -7 -9 -25 -21 -40 -17 -21 -29 -26 -66 -26 -37 0 -50 5 -74
31 -29 32 -31 31 -42 -18 -6 -28 33 -43 117 -43 72 0 116 22 141 71 34 64 -4
129 -82 143 -84 15 -103 26 -103 56 0 16 7 36 16 44 29 30 124 15 124 -19 0
-8 7 -15 15 -15 20 0 21 66 1 73 -28 11 -102 15 -131 8z"/>
<path d="M3385 2840 c-3 -6 5 -14 19 -20 l26 -10 0 -128 c0 -122 1 -131 23
-154 28 -30 109 -51 159 -41 98 18 118 55 118 214 0 102 2 111 20 116 11 3 20
12 20 19 0 10 -16 14 -60 14 -47 0 -60 -3 -60 -15 0 -8 9 -15 20 -15 19 0 20
-7 20 -124 0 -123 0 -125 -26 -145 -16 -13 -41 -21 -64 -21 -23 0 -48 8 -64
21 -26 20 -26 22 -26 145 0 117 1 124 20 124 11 0 20 7 20 15 0 12 -15 15 -79
15 -44 0 -83 -5 -86 -10z"/>
<path d="M3880 2836 c0 -8 10 -16 23 -18 22 -3 22 -5 22 -148 0 -143 0 -145
-22 -148 -13 -2 -23 -10 -23 -18 0 -11 15 -14 65 -14 51 0 65 3 65 15 0 8 -9
15 -20 15 -29 0 -31 12 -28 133 l3 106 119 -135 c161 -182 160 -182 164 34 2
154 4 162 22 162 11 0 20 7 20 15 0 12 -13 15 -60 15 -47 0 -60 -3 -60 -15 0
-8 9 -15 20 -15 19 0 20 -7 20 -111 l0 -110 -107 125 -108 125 -57 0 c-44 1
-58 -2 -58 -13z"/>
<path d="M4397 2844 c-10 -11 2 -24 24 -24 18 0 19 -8 19 -149 0 -143 -1 -150
-20 -153 -12 -2 -21 -7 -20 -13 0 -6 34 -10 80 -10 45 0 81 4 83 10 1 6 -8 11
-20 13 -23 3 -23 6 -23 152 0 142 1 149 20 152 12 2 22 8 23 13 2 11 -155 20
-166 9z"/>
<path d="M4660 2835 c0 -8 6 -15 13 -15 24 0 42 -31 108 -182 85 -198 84 -198
175 14 45 106 75 163 87 166 9 2 17 11 17 19 0 11 -14 13 -62 11 -61 -3 -87
-20 -40 -26 12 -2 22 -5 22 -7 0 -5 -48 -126 -75 -190 l-17 -39 -44 103 c-24
57 -44 109 -44 116 0 7 9 15 21 18 46 12 4 27 -77 27 -68 0 -84 -3 -84 -15z"/>
<path d="M5150 2835 c0 -8 9 -15 20 -15 19 0 20 -7 20 -150 0 -127 -2 -150
-15 -150 -8 0 -15 -7 -15 -15 0 -13 20 -15 143 -13 l142 3 3 43 c4 47 -13 57
-28 17 -9 -23 -14 -25 -75 -25 l-65 0 0 65 0 65 39 0 c32 0 40 -4 45 -22 8
-34 24 -11 27 41 4 46 -14 69 -24 31 -4 -16 -13 -20 -46 -20 l-41 0 0 65 0 65
38 0 c52 0 82 -10 82 -26 0 -8 6 -14 14 -14 13 0 28 55 18 65 -3 3 -68 5 -144
5 -116 0 -138 -2 -138 -15z"/>
<path d="M5550 2835 c0 -8 9 -15 20 -15 19 0 20 -7 20 -150 0 -143 -1 -150
-20 -150 -11 0 -20 -7 -20 -15 0 -12 16 -15 85 -15 69 0 85 3 85 15 0 8 -9 15
-20 15 -27 0 -31 24 -28 170 l3 125 27 3 c37 4 78 -36 78 -78 0 -34 -30 -70
-60 -70 -11 0 -20 -3 -20 -7 0 -4 26 -45 57 -90 l57 -83 47 0 c48 0 74 15 45
26 -8 3 -38 35 -65 71 l-50 65 34 33 c56 52 42 121 -31 151 -49 20 -244 20
-244 -1z"/>
<path d="M6390 2840 c0 -6 11 -15 25 -20 l25 -10 0 -140 0 -140 -25 -10 c-49
-19 -26 -30 60 -30 69 0 85 3 85 15 0 8 -9 15 -20 15 -19 0 -20 7 -20 150 0
143 1 150 20 150 11 0 20 7 20 15 0 12 -16 15 -85 15 -51 0 -85 -4 -85 -10z"/>
<path d="M6660 2810 c0 -29 4 -40 15 -40 8 0 15 9 15 20 0 17 7 20 50 20 l50
0 0 -140 0 -140 -25 -10 c-49 -19 -26 -30 60 -30 69 0 85 3 85 15 0 8 -9 15
-20 15 -19 0 -20 7 -20 145 l0 145 44 0 c36 0 46 -4 51 -20 8 -26 21 -25 29 3
16 59 21 57 -164 57 l-170 0 0 -40z"/>
<path d="M7070 2835 c0 -8 8 -15 18 -15 11 0 37 -33 75 -96 49 -82 57 -102 57
-145 0 -44 -3 -51 -25 -59 -49 -19 -26 -30 60 -30 69 0 85 3 85 15 0 8 -9 15
-20 15 -18 0 -20 7 -20 67 0 61 4 73 46 145 25 43 55 83 65 89 33 17 21 29
-30 29 -52 0 -73 -13 -46 -28 14 -7 12 -17 -20 -70 -20 -34 -38 -62 -40 -62
-4 0 -75 118 -75 126 0 2 7 4 15 4 8 0 15 7 15 15 0 12 -16 15 -80 15 -64 0
-80 -3 -80 -15z"/>
<path d="M4394 2252 c-91 -32 -173 -119 -242 -259 l-36 -73 -56 -1 c-30 0 -81
-4 -112 -8 l-57 -7 -6 32 c-3 19 -19 44 -36 58 -44 38 -89 42 -165 17 -204
-67 -399 -300 -397 -475 1 -61 26 -97 82 -115 137 -44 402 146 490 351 l19 45
87 7 c56 5 91 4 98 -3 13 -13 -35 -142 -114 -308 -45 -97 -69 -135 -113 -178
-90 -90 -181 -120 -279 -91 -67 20 -73 20 -58 2 18 -21 100 -41 168 -39 182 3
331 158 497 516 l45 97 50 0 c138 0 266 82 295 190 6 21 4 20 -14 -8 -12 -18
-43 -45 -68 -59 -39 -23 -61 -28 -138 -31 l-93 -4 20 53 c34 88 100 208 127
229 30 24 77 26 86 4 7 -18 -1 -58 -21 -96 -7 -16 -9 -28 -4 -28 17 0 90 91
96 122 14 62 -61 92 -151 60z m-654 -322 c12 -12 20 -33 20 -52 0 -28 -8 -38
-51 -67 -27 -19 -48 -35 -46 -37 2 -2 20 1 41 7 21 6 40 8 43 5 11 -11 -75
-154 -124 -203 -56 -58 -131 -98 -167 -89 -26 6 -46 44 -46 86 0 108 126 296
234 350 51 25 71 25 96 0z"/>
<path d="M4955 2251 c-81 -25 -112 -38 -121 -52 -5 -9 -2 -10 12 -5 32 14 98
17 114 7 23 -16 16 -103 -16 -201 -15 -47 -96 -222 -181 -390 -84 -168 -155
-317 -159 -332 -5 -24 -3 -28 15 -28 49 0 170 84 521 361 63 49 124 95 135
101 62 35 -446 -535 -712 -799 -300 -297 -553 -408 -818 -360 -44 8 -106 25
-138 37 -113 43 -254 154 -322 255 -20 29 -25 33 -20 15 30 -103 166 -255 275
-308 103 -51 205 -72 340 -72 304 0 584 144 904 466 108 108 140 144 541 614
348 407 532 584 655 631 58 23 187 31 245 15 47 -12 17 10 -38 28 -99 33 -244
13 -372 -51 -82 -42 -214 -136 -346 -248 -207 -177 -619 -487 -619 -468 0 4
40 91 89 193 163 340 219 526 175 588 -19 28 -72 29 -159 3z"/>
<path d="M7095 2124 c-112 -39 -122 -44 -123 -67 0 -24 -56 -155 -121 -286
-35 -69 -45 -81 -66 -81 -31 0 -205 -58 -314 -105 -46 -19 -85 -34 -87 -32 -2
1 6 32 17 67 17 56 18 65 5 79 -34 33 -184 3 -317 -65 -68 -34 -79 -34 -79 -2
0 10 -13 32 -29 50 -28 32 -32 33 -108 33 -71 0 -87 -4 -154 -37 -143 -71
-265 -196 -335 -343 -102 -214 -4 -348 202 -275 162 56 358 254 410 413 9 28
21 57 26 64 12 14 183 89 226 98 28 6 32 4 32 -14 0 -30 -69 -182 -176 -387
-52 -100 -94 -184 -94 -187 0 -7 67 16 108 37 20 10 44 40 71 88 97 177 230
330 332 381 39 19 70 27 109 27 33 0 73 8 99 20 24 11 46 18 49 16 2 -3 -58
-130 -134 -283 -76 -153 -140 -281 -142 -285 -7 -15 19 -8 75 18 39 19 63 38
81 68 51 78 85 117 127 141 23 14 48 25 55 25 7 0 68 -42 136 -93 175 -132
272 -177 384 -177 73 0 146 22 206 63 67 45 66 60 -3 31 -113 -46 -203 -29
-340 64 -58 39 -195 158 -201 174 -2 5 18 18 45 29 236 100 332 171 349 257 5
26 1 36 -25 62 -35 35 -47 33 -56 -9 -10 -45 -67 -118 -126 -163 -88 -66 -241
-138 -293 -138 -25 0 -57 -5 -72 -10 -15 -6 -28 -9 -30 -7 -7 6 86 225 209
497 64 140 115 255 114 256 -1 1 -20 -5 -42 -12z m-1254 -494 c13 0 39 -63 39
-94 0 -17 -15 -39 -45 -67 -50 -47 -52 -58 -6 -35 l31 16 -11 -27 c-38 -101
-155 -241 -231 -276 -45 -21 -92 -22 -112 -1 -93 92 99 431 274 485 14 4 31 5
38 3 8 -2 18 -4 23 -4z"/>
</g>
</svg>
